<?xml version="1.0" encoding="iso-8859-1"?>
<!-- Generator: Adobe Illustrator 19.0.0, SVG Export Plug-In . SVG Version: 6.00 Build 0)  -->
<svg version="1.1" id="Layer_1" xmlns="http://www.w3.org/2000/svg" xmlns:xlink="http://www.w3.org/1999/xlink" x="0px" y="0px"
	 viewBox="0 0 485 485" style="enable-background:new 0 0 485 485;" xml:space="preserve">
<g>
	<g>
		<path style="fill:#546A79;" d="M432.5,452.5c0,0,0,11,0,25h-380c0-14,0-25,0-25s0.9-54.7,95-85c0,0,34.1-17.8,45-30
			c0,0,20.6,25,50,25s50-25,50-25c10.9,12.2,45,30,45,30C432.2,397.5,432.5,452.5,432.5,452.5z"/>
		<path style="fill:#FFD7A3;" d="M352.5,167.5c16.6,0,30,6.2,30,20c0,12.8-15.8,27.6-31.3,29.7c0.9-6.4,1.3-13,1.3-19.7V167.5z"/>
		<path style="fill:#FFE1B2;" d="M351.2,217.2c-5.4,39.1-26.6,71.9-58.7,88.5c-14.6,7.6-31.4,11.8-50,11.8s-35.4-4.2-50-11.8
			c-32.1-16.6-53.3-49.4-58.7-88.5c-0.9-6.4-1.3-13-1.3-19.7v-30v-25c0,0,59.4-6.6,100-40c0,0,70.9,50,120,50v15v30
			C352.5,204.2,352.1,210.8,351.2,217.2z"/>
		<path style="fill:#A97C50;" d="M232.5,102.5c-40.6,33.4-100,40-100,40v-70c0,0,35-65,110-65s110,65,110,65v80
			C303.4,152.5,232.5,102.5,232.5,102.5z"/>
		<path style="fill:#FFD7A3;" d="M292.5,305.7v31.8c0,0-20.6,25-50,25s-50-25-50-25v-31.8c14.6,7.6,31.4,11.8,50,11.8
			S277.9,313.3,292.5,305.7z"/>
		<path style="fill:#FFD7A3;" d="M132.5,197.5c0,6.7,0.4,13.3,1.3,19.7c-15.5-2.1-31.3-16.9-31.3-29.7c0-13.8,13.4-20,30-20V197.5z"
			/>
	</g>
	<g>
		<path style="fill:#231F20;" d="M340.4,360.553c-8.933-4.706-30.926-17.169-40.4-26.111v-24.3
			c30.386-17.373,51.165-48.544,57.804-86.697C375.018,218.516,390,202.361,390,187.5c0-15.044-11.308-25.026-30-27.094V70.609
			l-0.896-1.665c-0.383-0.711-9.588-17.599-28.472-34.528C305.519,11.9,275.043,0,242.5,0s-63.019,11.9-88.132,34.416
			c-18.884,16.93-28.089,33.817-28.472,34.528L125,70.609v89.796c-18.692,2.068-30,12.051-30,27.094
			c0,14.861,14.982,31.017,32.196,35.946c6.646,38.167,27.428,69.336,57.804,86.697v24.299c-9.48,8.947-31.494,21.42-40.417,26.119
			c-97.482,31.626-99.542,89.368-99.582,91.816L45,485h395v-32.541C439.986,449.996,438.545,391.89,340.4,360.553z M239.507,354.886
			c-19.531-1.326-34.602-15.199-39.507-20.291v-17.298c13.182,5.109,27.424,7.703,42.5,7.703c15.079,0,29.324-2.595,42.5-7.701
			v17.312c-4.884,5.106-19.858,18.96-39.506,20.277L239.507,354.886z M375,187.5c0,6.126-6.627,14.466-15.266,19.07
			c0.165-2.964,0.266-31.088,0.266-31.088C373.367,177.356,375,184.268,375,187.5z M164.78,45.229
			C187.332,25.17,213.481,15,242.5,15s55.168,10.17,77.72,30.229c13.952,12.408,22.185,25.008,24.78,29.294v70.08
			c-44.435-4.44-104.034-45.353-107.969-48.086c-2.063-1.696-21.146-17.542-33.604-33.612l-11.855,9.191
			c9.215,11.886,21.377,23.327,29.002,30.074c-28.696,20.344-64.597,28.693-80.574,31.574V74.522
			C142.603,70.225,150.835,57.632,164.78,45.229z M110,187.5c0-3.232,1.633-10.144,15-12.018c0,0,0.101,28.125,0.266,31.088
			C116.627,201.966,110,193.626,110,187.5z M141.227,216.156C140.413,210.363,140,204.087,140,197.5v-45v-3.501
			c16.352-2.678,59.21-11.768,92.822-37.202c15.971,10.654,69.204,44.164,112.178,47.869V197.5c0,6.587-0.413,12.863-1.229,18.674
			c-5.158,37.347-25.102,67.549-54.733,82.874C275.075,306.315,259.418,310,242.5,310s-32.575-3.685-46.555-10.962
			C166.331,283.723,146.388,253.521,141.227,216.156z M425,470H60v-17.362c0.048-0.88,0.904-12.937,11.582-28.015
			c18.801-26.55,52.912-41.836,78.217-49.984c0,0,28.46-14.881,42.447-26.6c6.563,6.18,18.6,15.628,34.285,19.823l-39.335,39.334
			l10.607,10.607l44.696-44.697l44.696,44.697l10.607-10.607l-39.335-39.334c15.685-4.195,27.722-13.643,34.285-19.823
			c13.987,11.719,42.481,26.61,42.481,26.61c25.456,8.064,59.721,23.257,78.396,49.836c10.718,15.254,11.344,27.458,11.368,28.096
			V470H425z"/>
		<rect x="232.5" y="405" style="fill:#231F20;" width="20" height="15"/>
		<rect x="232.5" y="435" style="fill:#231F20;" width="20" height="15"/>
		<path style="fill:#231F20;" d="M242.5,235h20v-15H250v-32.5h-15v40C235,231.643,238.357,235,242.5,235z"/>
	</g>
</g>
<g>
</g>
<g>
</g>
<g>
</g>
<g>
</g>
<g>
</g>
<g>
</g>
<g>
</g>
<g>
</g>
<g>
</g>
<g>
</g>
<g>
</g>
<g>
</g>
<g>
</g>
<g>
</g>
<g>
</g>
</svg>
